<?xml version="1.0" standalone="no"?>
<!DOCTYPE svg PUBLIC "-//W3C//DTD SVG 20010904//EN"
 "http://www.w3.org/TR/2001/REC-SVG-20010904/DTD/svg10.dtd">
<svg version="1.0" xmlns="http://www.w3.org/2000/svg"
 width="512.000000pt" height="512.000000pt" viewBox="0 0 512.000000 512.000000"
 preserveAspectRatio="xMidYMid meet">

<g transform="translate(0.000000,512.000000) scale(0.100000,-0.100000)"
fill="#000000" stroke="none">
<path d="M2280 4675 c-639 -89 -1197 -451 -1536 -996 -159 -258 -270 -579
-305 -888 -15 -135 -7 -455 15 -576 84 -462 279 -840 600 -1161 321 -321 699
-516 1161 -600 121 -22 442 -30 576 -15 591 68 1126 374 1476 845 207 277 333
573 398 931 22 123 31 423 16 566 -104 995 -891 1788 -1886 1899 -122 13 -399
11 -515 -5z m588 -1492 c35 -26 62 -81 62 -126 0 -28 -61 -181 -221 -555 -122
-284 -231 -528 -243 -540 -32 -35 -73 -54 -121 -54 -84 0 -145 57 -153 141 -4
44 13 87 218 567 122 285 232 530 244 542 56 62 150 72 214 25z m-1095 -47
c69 -28 107 -104 92 -183 -6 -32 -35 -66 -183 -215 l-176 -178 176 -177 c190
-191 199 -206 183 -290 -9 -49 -69 -109 -118 -118 -88 -17 -92 -14 -364 258
-349 350 -349 304 -10 646 133 134 256 249 272 257 39 17 87 17 128 0z m1700
0 c18 -8 141 -123 274 -257 339 -342 339 -296 -10 -646 -272 -272 -276 -275
-364 -258 -49 9 -109 69 -118 118 -16 84 -7 99 183 290 l176 177 -176 178
c-148 149 -177 183 -183 215 -25 132 98 235 218 183z"/>
</g>
</svg>
