<?xml version="1.0" standalone="no"?>
<!DOCTYPE svg PUBLIC "-//W3C//DTD SVG 20010904//EN"
 "http://www.w3.org/TR/2001/REC-SVG-20010904/DTD/svg10.dtd">
<svg version="1.0" xmlns="http://www.w3.org/2000/svg"
 width="512.000000pt" height="512.000000pt" viewBox="0 0 512.000000 512.000000"
 preserveAspectRatio="xMidYMid meet">

<g transform="translate(0.000000,512.000000) scale(0.100000,-0.100000)"
fill="#ECECEC" stroke="none">
<path d="M3805 4801 c-95 -43 -137 -117 -143 -249 -4 -86 -6 -94 -27 -104 -20
-9 -34 -5 -87 25 -90 50 -137 61 -204 47 -74 -16 -129 -60 -180 -145 l-41 -70
-482 -5 -483 -5 -24 -28 c-41 -48 -25 -130 31 -155 19 -9 139 -12 434 -12
l408 0 -7 -40 c-21 -113 34 -207 160 -276 84 -46 78 -79 -30 -142 -104 -62
-152 -161 -128 -264 11 -51 180 -349 221 -390 44 -43 85 -61 157 -66 61 -4 70
-2 142 37 118 63 138 55 138 -49 0 -180 101 -290 267 -290 l43 0 0 -415 0
-415 -1885 0 -1885 0 0 1121 c0 832 3 1126 12 1142 25 47 13 46 587 47 l543 0
34 34 c38 38 43 70 19 115 -8 16 -27 33 -42 40 -21 9 -177 11 -588 9 l-560 -3
-55 -31 c-30 -17 -70 -50 -87 -73 -67 -87 -64 -3 -61 -1527 l3 -1379 31 -55
c38 -67 114 -124 185 -139 33 -7 284 -11 724 -11 371 0 675 -3 675 -7 0 -24
-51 -431 -56 -448 -12 -38 -57 -87 -98 -106 -30 -14 -65 -19 -129 -19 -49 0
-98 -5 -110 -11 -63 -32 -77 -111 -28 -160 l29 -29 906 0 905 0 26 23 c17 14
28 36 32 63 5 36 1 46 -25 75 -30 34 -31 34 -139 39 -133 7 -182 30 -222 107
-8 17 -61 409 -61 460 0 10 148 13 648 15 l647 3 52 24 c29 13 71 43 94 68 78
85 74 39 77 779 l3 661 55 7 c66 8 118 32 161 78 47 48 63 96 63 183 0 129 17
138 142 75 97 -49 156 -53 233 -16 67 31 79 46 183 226 103 178 117 214 109
281 -11 93 -53 146 -162 209 -47 27 -55 36 -55 61 0 23 8 34 43 55 93 58 109
71 137 113 33 48 45 110 35 170 -8 48 -172 340 -219 389 -48 52 -102 75 -172
76 -52 0 -71 -6 -138 -42 -88 -47 -96 -49 -119 -24 -13 14 -17 38 -17 98 0
125 -43 199 -140 243 -41 19 -65 21 -255 21 -182 0 -215 -3 -250 -19z m446
-281 c6 -110 26 -157 88 -213 49 -44 135 -72 194 -63 23 4 76 26 119 48 70 37
80 40 93 27 22 -22 175 -289 175 -305 0 -8 -30 -34 -67 -58 -38 -24 -80 -56
-95 -72 -60 -64 -75 -182 -34 -269 26 -56 61 -90 136 -131 27 -15 52 -35 55
-45 8 -25 -161 -319 -182 -319 -9 0 -51 18 -95 40 -101 50 -166 54 -246 14
-96 -48 -142 -133 -142 -264 0 -38 -5 -71 -12 -78 -8 -8 -63 -12 -179 -12
-204 0 -199 -3 -199 111 0 90 -13 129 -61 184 -46 52 -119 85 -191 85 -47 0
-70 -7 -138 -42 -61 -32 -85 -40 -97 -32 -8 5 -53 74 -99 154 -64 111 -81 147
-74 161 6 10 34 31 64 48 98 56 149 133 150 226 1 109 -38 173 -144 235 -53
32 -70 48 -70 64 0 27 153 296 175 308 10 6 38 -4 88 -32 118 -64 195 -64 293
3 73 48 104 115 104 221 0 51 5 87 12 94 9 9 61 12 193 10 l180 -3 6 -95z
m-283 -3060 c-3 -119 -5 -131 -26 -152 l-23 -23 -1833 0 -1834 0 -26 24 c-25
24 -26 28 -26 153 l0 128 1886 0 1886 0 -4 -130z m-1494 -617 c16 -135 36
-261 46 -290 l18 -53 -405 0 c-320 0 -404 3 -399 13 23 55 39 142 61 329 14
120 25 222 25 228 0 6 108 10 313 10 l313 0 28 -237z"/>
<path d="M3950 4124 c-155 -42 -272 -170 -302 -333 -32 -173 67 -363 231 -444
62 -30 72 -32 176 -32 103 0 114 2 177 32 40 19 89 53 118 83 139 138 160 364
49 526 -99 145 -280 213 -449 168z m213 -216 c22 -13 55 -43 72 -66 27 -40 30
-51 30 -120 0 -67 -3 -82 -27 -115 -81 -119 -251 -131 -342 -26 -103 121 -50
301 102 350 41 13 119 2 165 -23z"/>
<path d="M1711 4286 c-29 -16 -50 -52 -51 -88 0 -35 43 -85 80 -93 57 -12 120
37 120 95 0 74 -83 122 -149 86z"/>
<path d="M883 3848 c-34 -20 -324 -330 -335 -357 -18 -49 1 -78 157 -243 85
-89 166 -168 181 -176 73 -39 164 44 134 122 -5 14 -62 80 -126 145 l-116 120
116 119 c64 66 120 132 126 147 13 33 -1 84 -29 109 -25 22 -81 29 -108 14z"/>
<path d="M1630 3846 c-22 -13 -129 -180 -362 -565 -69 -113 -72 -139 -24 -187
45 -45 84 -46 130 -1 19 17 116 167 217 331 154 251 184 306 184 338 0 70 -84
119 -145 84z"/>
<path d="M2014 3851 c-31 -14 -64 -60 -64 -90 1 -38 14 -56 130 -180 58 -61
106 -115 108 -119 1 -5 -46 -60 -106 -123 -117 -123 -132 -144 -132 -184 0
-37 59 -95 96 -95 40 0 64 19 179 140 204 213 205 215 205 260 0 38 -7 48
-119 168 -213 228 -239 247 -297 223z"/>
<path d="M578 2781 c-27 -24 -33 -36 -33 -71 0 -35 6 -47 33 -71 l33 -29 895
2 896 3 24 28 c26 30 32 83 14 118 -27 50 -4 49 -949 49 l-881 0 -32 -29z"/>
<path d="M2734 2776 c-24 -24 -34 -43 -34 -66 0 -41 56 -100 94 -100 105 0
146 139 55 186 -45 23 -78 17 -115 -20z"/>
<path d="M588 2285 c-30 -17 -52 -71 -43 -108 4 -14 18 -36 32 -49 l25 -23
639 -3 c708 -3 686 -5 714 61 18 43 9 82 -27 112 l-30 25 -641 0 c-541 -1
-646 -3 -669 -15z"/>
<path d="M2353 2288 c-30 -15 -56 -72 -48 -107 3 -16 17 -39 31 -52 l26 -24
454 -3 c506 -3 502 -3 530 64 18 44 10 77 -28 109 l-30 25 -456 -1 c-301 0
-465 -4 -479 -11z"/>
</g>
</svg>
