<?xml version="1.0" standalone="no"?>
<!DOCTYPE svg PUBLIC "-//W3C//DTD SVG 20010904//EN"
 "http://www.w3.org/TR/2001/REC-SVG-20010904/DTD/svg10.dtd">
<svg version="1.0" xmlns="http://www.w3.org/2000/svg"
 width="512.000000pt" height="512.000000pt" viewBox="0 0 512.000000 512.000000"
 preserveAspectRatio="xMidYMid meet">

<g transform="translate(0.000000,512.000000) scale(0.100000,-0.100000)"
fill="#ECECEC" stroke="none">
<path d="M2020 4789 c-29 -12 -67 -45 -83 -74 -7 -12 -14 -87 -17 -183 l-5
-163 -90 -38 -90 -38 -116 113 c-124 121 -149 134 -227 119 -32 -5 -85 -54
-414 -383 -329 -329 -378 -382 -383 -414 -15 -78 -2 -103 119 -227 l112 -116
-37 -90 -37 -90 -166 -5 c-179 -5 -192 -9 -240 -74 -21 -27 -21 -38 -21 -566
0 -528 0 -539 21 -566 48 -65 61 -69 240 -74 l166 -5 37 -90 37 -90 -112 -116
c-121 -124 -134 -149 -119 -226 5 -33 54 -86 383 -415 329 -329 382 -378 414
-383 78 -15 103 -2 227 119 l116 113 90 -38 90 -38 5 -165 c5 -179 9 -192 74
-240 27 -21 38 -21 566 -21 528 0 539 0 566 21 65 48 69 61 74 240 l5 165 92
38 91 38 99 -100 c114 -116 161 -142 232 -132 45 6 56 16 423 383 329 330 378
382 383 415 15 77 2 102 -119 226 l-112 116 37 90 37 90 166 5 c179 5 192 9
240 74 21 27 21 38 21 566 0 528 0 539 -21 566 -48 65 -61 69 -240 74 l-166 5
-37 90 -37 90 112 116 c121 124 134 149 119 227 -5 32 -54 84 -383 414 -367
367 -378 377 -423 383 -71 10 -118 -16 -232 -132 l-99 -100 -91 38 -92 38 -5
165 c-5 179 -9 192 -74 240 -27 21 -39 21 -554 23 -337 1 -536 -2 -552 -8z
m671 -658 c69 -33 112 -74 150 -143 31 -58 34 -70 34 -148 0 -78 -3 -90 -34
-148 -19 -35 -48 -74 -64 -88 -38 -32 -120 -73 -149 -76 -13 -1 58 -4 157 -8
196 -7 228 -15 306 -79 46 -38 96 -132 104 -197 l7 -51 -78 -12 c-199 -31
-383 -97 -526 -187 l-38 -24 -38 24 c-143 90 -327 156 -526 187 l-78 12 6 50
c14 105 84 200 181 247 45 22 67 25 230 30 99 4 169 7 156 8 -38 3 -140 63
-172 101 -56 68 -73 118 -73 211 0 70 4 94 24 135 42 86 123 152 215 176 49
13 158 2 206 -20z m-721 -1106 c52 -8 129 -24 170 -35 95 -27 263 -106 346
-165 36 -25 69 -45 74 -45 5 0 37 20 72 44 123 85 289 156 448 191 46 10 146
19 258 22 l182 6 0 -722 0 -721 -106 0 c-281 0 -549 -81 -772 -233 l-83 -57
-78 55 c-216 151 -490 234 -773 235 l-108 0 0 720 0 720 138 0 c75 0 180 -7
232 -15z m-530 -840 l0 -696 23 -23 c23 -23 31 -24 228 -29 153 -4 225 -10
289 -25 190 -45 368 -133 505 -252 63 -54 88 -53 162 8 148 123 303 199 493
244 64 15 136 21 289 25 197 5 205 6 228 29 l23 23 0 697 0 697 33 -7 c38 -7
73 -31 101 -70 21 -27 21 -36 21 -726 0 -690 0 -699 -21 -726 -51 -69 -48 -68
-352 -75 -293 -7 -330 -12 -468 -64 -96 -36 -192 -95 -285 -176 -120 -103
-177 -106 -282 -12 -87 79 -194 147 -287 183 -149 57 -184 62 -482 69 -304 7
-301 6 -352 75 -21 27 -21 39 -24 699 -2 370 0 686 3 704 10 58 82 121 138
123 16 0 17 -40 17 -695z"/>
<path d="M1943 2377 c-166 -166 -183 -186 -183 -217 0 -31 17 -51 183 -217
162 -163 186 -183 215 -183 44 0 82 38 82 81 0 28 -18 51 -142 176 l-142 143
142 143 c124 125 142 148 142 176 0 43 -38 81 -82 81 -29 0 -53 -20 -215 -183z"/>
<path d="M2591 2542 c-18 -14 -39 -82 -106 -352 -47 -184 -85 -345 -85 -358 0
-32 43 -72 78 -72 63 0 67 10 157 370 47 184 85 345 85 358 0 57 -83 92 -129
54z"/>
<path d="M2905 2535 c-16 -15 -25 -35 -25 -56 0 -28 18 -51 142 -176 l142
-143 -142 -143 c-124 -125 -142 -148 -142 -176 0 -43 38 -81 82 -81 29 0 53
20 215 183 166 166 183 186 183 217 0 31 -17 51 -183 217 -162 163 -186 183
-215 183 -22 0 -41 -9 -57 -25z"/>
</g>
</svg>
