<?xml version="1.0" standalone="no"?>
<!DOCTYPE svg PUBLIC "-//W3C//DTD SVG 20010904//EN"
 "http://www.w3.org/TR/2001/REC-SVG-20010904/DTD/svg10.dtd">
<svg version="1.0" xmlns="http://www.w3.org/2000/svg"
 width="512.000000pt" height="512.000000pt" viewBox="0 0 512.000000 512.000000"
 preserveAspectRatio="xMidYMid meet">

<g transform="translate(0.000000,512.000000) scale(0.100000,-0.100000)"
fill="#ECECEC" stroke="none">
<path d="M2365 5104 c-114 -17 -250 -59 -275 -84 -42 -42 -11 -120 48 -120 15
0 56 9 92 20 270 83 559 60 815 -64 619 -302 821 -1067 434 -1638 -158 -232
-430 -409 -711 -463 -107 -20 -308 -21 -414 0 -644 123 -1048 775 -868 1402
60 213 195 422 354 550 63 50 77 75 66 119 -9 33 -60 56 -95 42 -37 -14 -146
-113 -221 -201 -87 -102 -153 -213 -206 -345 l-43 -107 -408 -6 c-249 -3 -420
-9 -438 -16 -150 -53 -246 -168 -266 -320 -4 -37 -8 -722 -9 -1520 l0 -1453
-60 0 c-72 0 -113 -19 -140 -63 -18 -29 -20 -51 -20 -242 0 -230 9 -288 57
-377 31 -57 113 -138 171 -167 105 -54 -19 -51 2332 -51 2351 0 2227 -3 2332
51 58 29 140 110 171 167 48 89 57 147 57 377 0 191 -2 213 -20 242 -27 44
-68 63 -140 63 l-60 0 0 1453 c-1 798 -5 1483 -9 1520 -22 165 -138 292 -299
326 -34 7 -191 11 -435 11 l-382 0 -19 58 c-29 90 -82 195 -146 290 -274 408
-759 621 -1245 546z m-1061 -1096 c-3 -29 -7 -63 -10 -75 l-4 -23 -331 0
c-360 0 -381 -3 -416 -56 -17 -27 -18 -93 -21 -1491 l-2 -1463 -70 0 -70 0 0
1495 c0 1453 1 1497 19 1533 28 53 82 101 132 117 34 10 130 14 411 14 l367 1
-5 -52z m3271 41 c53 -13 119 -67 145 -120 20 -37 20 -67 20 -1534 l0 -1495
-70 0 -70 0 -2 1463 c-3 1398 -4 1464 -21 1491 -35 53 -56 56 -416 56 l-331 0
-4 23 c-3 12 -7 46 -10 75 l-5 52 360 0 c230 0 376 -4 404 -11z m-3269 -376
c38 -263 156 -503 346 -699 245 -253 554 -385 904 -385 354 0 646 120 895 370
199 198 312 416 358 688 l18 108 306 3 307 2 0 -1430 0 -1430 -188 0 c-176 0
-190 -1 -210 -20 -29 -27 -29 -76 0 -107 l21 -23 454 0 453 0 0 -178 c0 -225
-10 -263 -84 -338 -93 -92 131 -84 -2326 -84 -2457 0 -2233 -8 -2326 84 -74
75 -84 113 -84 338 l0 178 955 0 955 0 0 -87 c0 -109 22 -154 89 -190 44 -23
46 -23 411 -23 365 0 367 0 411 23 67 36 89 81 89 190 l0 87 353 0 c274 1 356
4 369 14 40 30 39 92 0 122 -14 11 -310 13 -1559 14 l-1543 0 0 1430 0 1430
307 -2 308 -3 11 -82z m1602 -2995 l-3 -73 -345 0 -345 0 -3 73 -3 72 351 0
351 0 -3 -72z"/>
<path d="M1285 2364 c-11 -2 -45 -9 -75 -15 -130 -26 -272 -109 -369 -216 -69
-74 -82 -112 -57 -165 30 -62 30 -63 371 -68 l310 -5 3 -144 c2 -97 -1 -148
-9 -157 -9 -11 -68 -14 -313 -14 -331 0 -330 0 -362 -62 -23 -44 -11 -88 39
-147 133 -159 334 -251 546 -251 210 0 378 74 525 231 l74 79 584 0 584 0 35
-46 c44 -61 161 -154 241 -193 262 -128 585 -81 797 116 86 78 111 118 111
171 0 32 -7 47 -31 71 l-31 31 -303 0 c-263 0 -306 2 -319 16 -21 21 -24 275
-3 292 9 7 119 12 321 14 l308 3 29 33 c23 25 29 42 29 76 0 37 -7 53 -45 100
-113 138 -305 236 -493 252 -136 11 -302 -28 -419 -98 -66 -40 -170 -133 -204
-182 l-24 -36 -585 0 -586 0 -37 49 c-77 104 -237 208 -378 247 -55 15 -228
27 -264 18z m200 -159 c134 -28 243 -97 334 -211 31 -38 67 -72 87 -80 49 -20
1238 -21 1287 0 19 8 55 41 85 79 109 140 283 227 452 227 64 0 173 -25 233
-53 55 -25 157 -97 157 -109 0 -5 -113 -8 -252 -8 -235 0 -255 -1 -295 -21
-30 -15 -52 -35 -71 -67 -26 -45 -27 -55 -30 -198 -2 -95 1 -167 8 -194 15
-56 72 -114 125 -129 24 -6 137 -11 280 -11 l240 -1 -40 -35 c-90 -78 -221
-124 -355 -124 -99 0 -176 18 -260 60 -62 32 -171 126 -211 184 -47 70 -9 66
-709 66 -706 0 -666 4 -719 -73 -69 -102 -196 -189 -321 -222 -30 -8 -93 -15
-139 -15 -135 0 -254 40 -351 119 l-45 36 261 5 261 5 41 28 c72 47 82 80 82
276 0 181 -5 209 -48 255 -50 53 -69 56 -349 56 l-258 1 40 35 c85 74 241 132
360 133 28 0 82 -6 120 -14z"/>
<path d="M2066 4739 c-22 -17 -26 -28 -26 -69 0 -105 63 -236 148 -309 l45
-39 -43 -38 c-58 -52 -105 -128 -133 -215 l-24 -72 -23 32 c-25 36 -50 110
-50 151 0 70 -82 106 -128 57 -36 -38 -23 -147 30 -251 24 -48 99 -129 144
-157 l34 -21 0 -109 c0 -108 0 -109 -27 -123 -134 -69 -249 -326 -183 -408 43
-56 130 -21 130 52 0 61 31 131 80 182 l50 52 40 -56 c45 -64 111 -115 196
-156 57 -26 64 -27 234 -27 170 0 177 1 234 27 85 41 151 92 196 156 l40 56
50 -52 c49 -51 80 -121 80 -182 0 -73 87 -108 130 -52 66 82 -49 339 -182 408
-28 14 -28 15 -28 123 l0 109 34 21 c45 28 120 109 144 157 29 56 52 141 52
189 0 51 -31 85 -77 85 -38 0 -73 -39 -73 -80 0 -41 -25 -115 -50 -151 l-23
-32 -24 72 c-28 87 -75 163 -133 215 l-44 39 34 26 c87 67 160 214 160 321 0
41 -4 52 -26 69 -60 48 -113 15 -125 -78 -15 -107 -62 -176 -152 -221 -59 -30
-62 -30 -217 -30 -155 0 -158 0 -217 30 -90 45 -137 114 -152 221 -12 93 -65
126 -125 78z m675 -511 c72 -33 118 -75 155 -140 l29 -53 0 -225 c0 -256 -5
-275 -86 -358 -75 -75 -112 -87 -279 -87 -166 0 -202 11 -278 86 -82 82 -87
103 -87 359 0 213 1 227 22 266 72 134 177 186 363 181 87 -3 115 -8 161 -29z"/>
</g>
</svg>
