<?xml version="1.0" standalone="no"?>
<!DOCTYPE svg PUBLIC "-//W3C//DTD SVG 20010904//EN"
 "http://www.w3.org/TR/2001/REC-SVG-20010904/DTD/svg10.dtd">
<svg version="1.0" xmlns="http://www.w3.org/2000/svg"
 width="512.000000pt" height="512.000000pt" viewBox="0 0 512.000000 512.000000"
 preserveAspectRatio="xMidYMid meet">

<g transform="translate(0.000000,512.000000) scale(0.100000,-0.100000)"
fill="#1F3555" stroke="none">
<path d="M3741 5105 c-176 -28 -359 -103 -503 -205 -82 -59 -1027 -981 -1060
-1035 -26 -42 -22 -72 11 -106 27 -26 36 -29 98 -29 146 0 328 -33 476 -86
123 -44 87 -68 487 330 195 194 374 365 397 380 194 120 453 96 622 -58 179
-165 214 -453 78 -657 -45 -68 -1176 -1197 -1236 -1234 -183 -113 -421 -100
-588 32 -179 140 -292 164 -439 94 -73 -36 -125 -89 -160 -164 -24 -53 -26
-68 -22 -145 6 -108 35 -172 117 -250 155 -150 361 -257 582 -303 90 -18 124
-20 259 -15 277 10 442 60 650 199 107 71 1336 1300 1403 1403 242 371 271
814 80 1198 -173 350 -508 593 -893 652 -114 17 -245 16 -359 -1z"/>
<path d="M2066 3455 c-160 -30 -313 -94 -464 -192 -77 -49 -1285 -1252 -1364
-1357 -71 -95 -159 -271 -188 -376 -79 -287 -60 -561 57 -825 112 -251 347
-486 598 -598 319 -142 669 -141 991 4 169 76 227 126 763 663 498 499 504
505 497 538 -11 61 -38 74 -172 81 -153 8 -269 29 -403 72 -59 19 -118 35
-131 35 -18 0 -116 -91 -384 -359 -217 -215 -380 -369 -409 -386 -80 -46 -162
-67 -262 -68 -145 -1 -260 46 -361 147 -101 101 -147 213 -147 361 -1 108 25
194 82 282 51 77 1190 1211 1251 1245 25 14 76 35 113 48 58 19 84 22 170 18
148 -7 193 -26 367 -160 74 -57 121 -73 220 -73 140 1 261 83 310 211 30 81
25 188 -14 267 -73 150 -356 336 -613 404 -125 32 -380 41 -507 18z"/>
</g>
</svg>
