<?xml version="1.0" standalone="no"?>
<!DOCTYPE svg PUBLIC "-//W3C//DTD SVG 20010904//EN"
 "http://www.w3.org/TR/2001/REC-SVG-20010904/DTD/svg10.dtd">
<svg version="1.0" xmlns="http://www.w3.org/2000/svg"
 width="512.000000pt" height="512.000000pt" viewBox="0 0 512.000000 512.000000"
 preserveAspectRatio="xMidYMid meet">

<g transform="translate(0.000000,512.000000) scale(0.100000,-0.100000)"
fill="#ECECEC" stroke="none">
<path d="M2405 4373 c-135 -16 -205 -28 -303 -53 -636 -165 -1138 -666 -1302
-1302 -16 -62 -34 -149 -42 -193 -16 -103 -16 -427 0 -530 129 -803 732 -1405
1537 -1536 121 -20 437 -17 560 5 539 98 990 407 1270 871 196 325 286 734
244 1113 -93 859 -761 1528 -1621 1621 -91 10 -275 12 -343 4z m85 -538 l0
-395 -355 0 c-243 0 -355 3 -355 11 0 15 65 170 104 248 126 249 324 446 513
510 103 35 93 75 93 -374z m243 371 c227 -81 442 -330 577 -671 17 -42 30 -80
30 -85 0 -7 -126 -9 -352 -8 l-353 3 -3 393 c-3 449 -14 408 101 368z m-758
-122 c-128 -146 -233 -329 -311 -541 l-38 -103 -243 0 c-134 0 -243 3 -243 6
0 3 23 39 51 80 184 266 444 470 764 600 44 18 81 33 83 33 1 1 -27 -33 -63
-75z m1303 -10 c262 -124 471 -298 641 -535 33 -46 61 -87 61 -91 0 -5 -110
-8 -244 -8 l-243 0 -33 91 c-72 202 -191 411 -314 552 l-68 78 44 -17 c23 -9
94 -40 156 -70z m-1703 -826 c-7 -29 -16 -65 -19 -80 l-6 -28 -163 0 c-154 0
-166 -1 -214 -25 -54 -27 -97 -78 -113 -136 -6 -19 -10 -105 -10 -191 l0 -158
-85 0 c-99 0 -93 -13 -70 147 23 160 70 327 131 463 l27 60 267 0 268 0 -13
-52z m915 -28 l0 -80 -395 0 c-270 0 -395 3 -395 11 0 5 7 41 16 80 l16 69
379 0 379 0 0 -80z m914 15 c9 -35 16 -71 16 -80 0 -13 -45 -15 -395 -15
l-395 0 0 80 0 80 379 0 379 0 16 -65z m704 -32 c68 -165 105 -316 120 -488
l8 -85 -88 0 -88 0 0 175 c0 190 -7 222 -62 271 -55 51 -84 58 -262 64 l-170
5 -17 78 -17 77 268 0 268 0 40 -97z m-208 -223 c19 -19 20 -33 20 -418 0
-393 0 -399 -21 -418 -20 -18 -59 -19 -1328 -22 -718 -1 -1316 0 -1328 3 -50
12 -53 34 -53 445 l0 381 25 24 24 25 1321 0 c1307 0 1320 0 1340 -20z m-2840
-680 c3 -116 9 -193 17 -206 21 -37 91 -92 130 -103 21 -6 108 -11 194 -11
l156 0 12 -57 c6 -32 14 -68 17 -80 l6 -23 -270 0 -270 0 -35 83 c-44 103 -80
218 -101 323 -18 88 -35 252 -27 260 3 3 41 3 86 2 l80 -3 5 -185z m3171 185
c8 -7 -9 -175 -26 -260 -22 -104 -69 -252 -110 -342 l-34 -73 -266 0 -265 0 7
28 c3 15 12 52 18 82 l11 55 174 5 c162 5 178 7 217 29 24 14 55 42 70 64 28
40 28 42 31 216 1 97 5 182 7 189 3 8 29 12 83 12 43 0 81 -2 83 -5z m-1741
-585 l0 -80 -380 0 -380 0 -6 28 c-3 15 -10 43 -15 62 -20 76 -55 70 386 70
l395 0 0 -80z m928 38 c-5 -24 -13 -60 -19 -80 l-10 -38 -379 0 -380 0 0 80 0
80 399 0 399 0 -10 -42z m-1747 -368 c80 -212 193 -406 312 -536 69 -75 69
-75 -73 -17 -269 109 -537 320 -700 551 -36 51 -67 97 -68 102 -3 7 82 9 243
8 l246 -3 40 -105z m819 -285 c0 -324 -2 -395 -13 -395 -8 0 -38 8 -68 18
-195 64 -379 244 -514 504 -45 87 -115 247 -115 263 0 3 160 5 355 5 l355 0 0
-395z m850 384 c0 -5 -16 -49 -35 -95 -144 -346 -346 -580 -572 -660 -114 -40
-103 -80 -103 364 0 214 3 392 7 395 11 12 703 8 703 -4z m640 -5 c0 -23 -133
-187 -230 -284 -172 -172 -374 -304 -592 -388 l-78 -30 67 76 c124 143 235
336 313 545 l33 87 243 0 c134 0 244 -3 244 -6z"/>
<path d="M1349 2865 c-15 -8 -29 -25 -33 -39 -8 -33 156 -545 180 -563 26 -19
68 -16 88 6 9 10 38 83 65 162 l48 144 47 -145 c49 -148 69 -180 111 -180 47
0 61 28 144 286 45 138 81 263 81 276 0 52 -70 79 -110 43 -10 -9 -40 -80 -65
-156 -26 -77 -48 -139 -50 -139 -2 0 -25 66 -52 146 -44 134 -51 148 -77 159
-64 27 -85 1 -136 -165 -24 -77 -47 -140 -50 -140 -3 0 -25 60 -48 134 -53
170 -81 204 -143 171z"/>
<path d="M2209 2865 c-15 -8 -29 -25 -33 -39 -8 -33 156 -545 180 -563 26 -19
68 -16 88 6 9 10 38 83 65 162 l48 144 47 -145 c49 -148 69 -180 111 -180 47
0 61 28 144 291 45 141 81 265 81 276 0 47 -72 72 -110 38 -10 -9 -40 -80 -65
-156 -26 -77 -48 -139 -50 -139 -2 0 -25 66 -52 146 -44 134 -51 148 -77 159
-64 27 -85 1 -136 -165 -24 -77 -47 -140 -50 -140 -3 0 -25 60 -48 134 -53
170 -81 204 -143 171z"/>
<path d="M3069 2865 c-15 -8 -29 -25 -33 -37 -7 -29 158 -535 184 -562 23 -23
65 -24 90 -1 10 9 40 80 65 156 26 77 48 139 50 139 2 0 25 -66 52 -146 43
-133 51 -148 77 -159 33 -14 59 -10 79 13 7 10 51 134 96 276 73 231 81 263
70 288 -7 17 -22 31 -38 35 -65 17 -82 -4 -136 -168 -26 -77 -48 -139 -50
-139 -2 0 -25 66 -52 146 -44 134 -51 148 -77 159 -64 27 -85 1 -136 -165 -24
-77 -47 -140 -50 -140 -3 0 -25 60 -48 134 -53 170 -81 204 -143 171z"/>
</g>
</svg>
