<?xml version="1.0" standalone="no"?>
<!DOCTYPE svg PUBLIC "-//W3C//DTD SVG 20010904//EN"
 "http://www.w3.org/TR/2001/REC-SVG-20010904/DTD/svg10.dtd">
<svg version="1.0" xmlns="http://www.w3.org/2000/svg"
 width="512.000000pt" height="512.000000pt" viewBox="0 0 512.000000 512.000000"
 preserveAspectRatio="xMidYMid meet">

<g transform="translate(0.000000,512.000000) scale(0.100000,-0.100000)"
fill="#ECECEC" stroke="none">
<path d="M2210 4758 c-54 -37 -70 -68 -85 -161 -21 -132 -50 -167 -160 -200
-70 -21 -185 -68 -284 -116 -47 -23 -97 -41 -111 -41 -30 0 -89 30 -164 84
-66 46 -125 57 -177 31 -47 -23 -436 -411 -461 -459 -29 -57 -21 -113 28 -182
54 -75 84 -134 84 -164 0 -14 -18 -64 -41 -111 -48 -99 -95 -214 -116 -284
-33 -110 -68 -139 -200 -160 -93 -15 -124 -31 -161 -85 -22 -32 -22 -38 -22
-350 0 -312 0 -318 22 -350 37 -54 68 -70 162 -85 90 -15 141 -38 164 -75 7
-12 29 -68 49 -123 19 -56 59 -154 89 -218 30 -63 54 -126 54 -140 0 -29 -31
-89 -84 -163 -52 -73 -58 -128 -23 -188 14 -24 117 -134 229 -244 263 -261
280 -267 431 -158 110 79 126 80 275 11 66 -31 165 -72 220 -91 55 -19 110
-41 122 -48 37 -23 60 -74 75 -164 15 -94 31 -125 85 -161 32 -23 38 -23 350
-23 312 0 318 0 350 22 54 37 70 68 85 162 15 90 38 141 75 164 12 7 67 29
122 48 55 19 153 59 217 89 65 30 130 55 145 55 33 0 85 -26 155 -79 63 -47
107 -58 164 -41 34 10 81 50 245 214 112 110 215 220 229 244 35 60 29 115
-23 188 -53 74 -84 134 -84 163 0 14 24 77 54 140 30 64 70 162 90 218 56 162
69 175 214 198 92 15 123 32 160 85 22 32 22 38 22 350 0 312 0 318 -22 350
-37 54 -68 70 -162 85 -90 15 -141 38 -164 75 -7 12 -29 68 -49 123 -19 56
-59 154 -89 218 -30 63 -54 126 -54 140 0 29 31 89 84 163 47 66 57 125 31
177 -23 46 -399 424 -453 456 -60 35 -115 29 -188 -23 -75 -54 -134 -84 -164
-84 -15 0 -67 20 -116 43 -49 24 -141 63 -204 86 -156 58 -177 69 -201 107
-11 18 -26 72 -34 120 -15 94 -31 125 -85 162 -32 22 -38 22 -350 22 -312 0
-318 0 -350 -22z m598 -893 c456 -87 849 -424 1002 -860 57 -163 73 -261 73
-445 0 -130 -4 -185 -21 -260 -57 -259 -167 -469 -341 -653 -190 -199 -422
-328 -701 -389 -125 -28 -385 -30 -505 -4 -263 56 -478 167 -665 344 -115 108
-205 229 -274 367 -63 127 -89 202 -118 335 -28 126 -30 374 -5 502 114 574
575 1005 1152 1078 95 12 302 4 403 -15z"/>
<path d="M2360 3775 c-378 -63 -715 -309 -890 -646 -317 -615 -76 -1360 541
-1669 473 -236 1038 -146 1414 227 590 584 441 1577 -295 1962 -234 122 -518
169 -770 126z m478 -577 c7 -7 12 -21 12 -32 0 -21 -472 -1195 -496 -1233 -25
-40 -84 -24 -84 21 0 21 472 1195 496 1234 16 24 53 29 72 10z m-547 -162 c7
-14 8 -30 3 -39 -5 -8 -61 -58 -124 -112 -63 -53 -119 -100 -123 -104 -4 -4
51 -58 123 -120 71 -61 130 -119 130 -128 0 -22 -29 -53 -50 -53 -14 0 -167
124 -297 241 -57 51 -50 63 120 208 163 140 196 156 218 107z m715 -497 c180
-153 194 -167 194 -194 0 -34 -292 -284 -333 -285 -31 0 -56 37 -41 62 5 8 59
57 119 108 61 51 116 98 123 105 11 10 -11 34 -117 124 -72 61 -131 119 -131
128 0 22 29 53 50 53 9 0 70 -46 136 -101z"/>
</g>
</svg>
