<?xml version="1.0" standalone="no"?>
<!DOCTYPE svg PUBLIC "-//W3C//DTD SVG 20010904//EN"
 "http://www.w3.org/TR/2001/REC-SVG-20010904/DTD/svg10.dtd">
<svg version="1.0" xmlns="http://www.w3.org/2000/svg"
 width="512.000000pt" height="512.000000pt" viewBox="0 0 512.000000 512.000000"
 preserveAspectRatio="xMidYMid meet">

<g transform="translate(0.000000,512.000000) scale(0.100000,-0.100000)"
fill="#000000" stroke="none">
<path d="M575 3986 c-67 -29 -105 -106 -91 -181 9 -47 59 -102 104 -115 26 -8
641 -10 1994 -8 l1957 3 27 21 c53 39 69 71 69 134 0 63 -16 95 -69 134 l-27
21 -1967 2 c-1620 2 -1972 0 -1997 -11z"/>
<path d="M1416 2697 c-109 -61 -106 -221 5 -277 38 -20 61 -20 1578 -18 1537
3 1540 3 1567 24 53 39 69 71 69 134 0 63 -16 95 -69 134 -27 21 -30 21 -1569
23 l-1542 3 -39 -23z"/>
<path d="M575 1426 c-67 -29 -105 -106 -91 -181 9 -47 59 -102 104 -115 26 -8
641 -10 1994 -8 l1957 3 27 21 c53 39 69 71 69 134 0 63 -16 95 -69 134 l-27
21 -1967 2 c-1620 2 -1972 0 -1997 -11z"/>
</g>
</svg>
