<?xml version="1.0" standalone="no"?>
<!DOCTYPE svg PUBLIC "-//W3C//DTD SVG 20010904//EN"
 "http://www.w3.org/TR/2001/REC-SVG-20010904/DTD/svg10.dtd">
<svg version="1.0" xmlns="http://www.w3.org/2000/svg"
 width="512.000000pt" height="512.000000pt" viewBox="0 0 512.000000 512.000000"
 preserveAspectRatio="xMidYMid meet">

<g transform="translate(0.000000,512.000000) scale(0.100000,-0.100000)"
fill="#ECECEC" stroke="none">
<path d="M2370 5113 c-379 -36 -661 -116 -980 -278 -378 -193 -717 -497 -965
-865 -104 -156 -232 -419 -294 -605 -49 -150 -89 -321 -113 -490 -17 -118 -17
-512 0 -630 42 -295 120 -553 242 -800 137 -280 272 -468 494 -691 221 -220
412 -357 681 -489 188 -92 309 -137 500 -185 500 -126 1002 -102 1490 71 149
53 407 182 540 271 365 243 667 578 866 963 181 348 271 694 286 1090 15 426
-73 832 -263 1214 -124 250 -263 447 -458 648 -216 224 -428 378 -711 518
-296 146 -572 225 -900 255 -102 9 -333 11 -415 3z m1669 -1428 c60 -33 110
-87 143 -154 l23 -46 0 -925 0 -925 -23 -46 c-33 -67 -83 -121 -143 -154 l-54
-30 -1425 0 -1425 0 -54 30 c-60 33 -110 87 -143 154 l-23 46 0 925 0 925 28
57 c34 69 100 130 171 157 50 20 76 20 1461 18 l1410 -2 54 -30z"/>
<path d="M1450 3446 c32 -30 1091 -867 1104 -872 10 -4 1048 807 1116 872 12
12 -145 14 -1110 14 -961 0 -1122 -2 -1110 -14z"/>
<path d="M1180 2507 c0 -776 1 -815 18 -830 17 -16 126 -17 1364 -17 1292 0
1346 1 1362 18 15 17 16 86 14 829 l-3 811 -210 -168 c-837 -666 -1111 -880
-1136 -885 -16 -4 -42 -4 -57 0 -15 3 -190 134 -388 291 -285 227 -807 640
-941 747 l-23 18 0 -814z"/>
</g>
</svg>
