<?xml version="1.0" standalone="no"?>
<!DOCTYPE svg PUBLIC "-//W3C//DTD SVG 20010904//EN"
 "http://www.w3.org/TR/2001/REC-SVG-20010904/DTD/svg10.dtd">
<svg version="1.0" xmlns="http://www.w3.org/2000/svg"
 width="512.000000pt" height="512.000000pt" viewBox="0 0 512.000000 512.000000"
 preserveAspectRatio="xMidYMid meet">

<g transform="translate(0.000000,512.000000) scale(0.100000,-0.100000)"
fill="#1F3555" stroke="none">
<path d="M640 4397 l0 -392 950 -950 c628 -628 957 -950 970 -950 13 0 342
322 970 950 l950 950 0 392 c0 216 -3 393 -7 393 -5 0 -437 -429 -960 -952
l-953 -953 -953 953 c-523 523 -955 952 -960 952 -4 0 -7 -177 -7 -393z"/>
<path d="M640 2637 l0 -392 950 -950 c628 -628 957 -950 970 -950 13 0 342
322 970 950 l950 950 0 392 c0 216 -3 393 -7 393 -5 0 -437 -429 -960 -952
l-953 -953 -953 953 c-523 523 -955 952 -960 952 -4 0 -7 -177 -7 -393z"/>
</g>
</svg>
