<?xml version="1.0" standalone="no"?>
<!DOCTYPE svg PUBLIC "-//W3C//DTD SVG 20010904//EN"
 "http://www.w3.org/TR/2001/REC-SVG-20010904/DTD/svg10.dtd">
<svg version="1.0" xmlns="http://www.w3.org/2000/svg"
 width="512.000000pt" height="512.000000pt" viewBox="0 0 512.000000 512.000000"
 preserveAspectRatio="xMidYMid meet">

<g transform="translate(0.000000,512.000000) scale(0.100000,-0.100000)"
fill="#ECECEC" stroke="none">
<path d="M2172 4923 c-17 -15 -27 -55 -56 -223 -20 -113 -38 -214 -41 -226 -3
-15 -17 -23 -55 -32 -81 -19 -237 -80 -352 -139 l-107 -54 -182 127 c-101 70
-191 129 -202 132 -15 4 -84 -60 -293 -269 -151 -151 -274 -281 -274 -290 0
-9 59 -101 130 -203 l131 -187 -65 -132 c-36 -73 -83 -185 -105 -250 -22 -65
-42 -121 -46 -125 -3 -3 -106 -24 -228 -47 -207 -38 -223 -42 -234 -65 -10
-19 -13 -117 -13 -386 0 -330 2 -364 18 -382 14 -17 54 -28 222 -57 113 -20
213 -39 223 -43 12 -5 31 -47 57 -127 22 -66 70 -179 106 -252 l65 -132 -131
-187 c-71 -102 -130 -195 -130 -205 0 -11 109 -130 266 -289 200 -202 273
-270 290 -270 14 0 98 52 210 130 l185 131 107 -54 c115 -59 271 -120 352
-139 38 -9 52 -17 55 -32 3 -12 21 -113 41 -226 29 -166 40 -208 56 -222 18
-16 52 -18 388 -18 336 0 370 2 388 18 16 14 27 57 57 227 20 116 38 217 41
226 2 9 24 20 54 27 79 18 236 80 345 136 55 28 105 50 112 50 6 -1 92 -58
191 -128 99 -69 189 -126 199 -126 23 0 563 539 563 561 0 9 -59 101 -131 204
l-131 188 55 106 c57 109 115 257 138 348 15 61 -16 50 289 103 142 25 178 34
193 51 15 19 17 53 17 383 0 271 -3 367 -13 386 -12 23 -27 28 -235 66 -122
22 -225 43 -228 47 -3 3 -23 59 -45 124 -22 65 -69 177 -105 250 l-65 132 131
187 c71 102 130 194 130 203 0 21 -540 561 -561 561 -9 0 -101 -59 -204 -130
l-188 -130 -106 54 c-114 58 -270 119 -351 138 -30 7 -52 18 -54 27 -3 9 -21
111 -41 226 -30 170 -41 213 -57 228 -18 15 -52 17 -388 17 -336 0 -370 -2
-388 -17z m751 -1079 c198 -45 379 -180 516 -385 85 -126 107 -174 114 -242
10 -107 61 -150 169 -145 l68 3 60 -60 c93 -92 95 -85 -122 -301 -101 -100
-191 -184 -201 -188 -25 -8 -64 14 -116 67 -41 43 -43 47 -32 78 6 17 11 55
11 84 0 95 -70 161 -216 205 -68 20 -74 25 -197 148 l-127 127 26 64 c89 219
-14 387 -300 487 -54 19 -85 35 -76 38 88 36 307 46 423 20z m-988 -554 l420
-420 -153 -152 -152 -153 -420 420 c-391 392 -420 423 -420 455 0 31 13 48
117 152 105 106 121 118 153 118 32 0 62 -27 455 -420z m335 -1105 c-413 -413
-755 -748 -768 -752 -20 -5 -39 9 -118 88 -52 52 -97 102 -100 113 -5 15 148
173 747 772 l754 754 115 -115 115 -115 -745 -745z m538 232 l82 -82 -153
-153 -152 -152 -85 85 -85 85 150 150 c82 83 152 150 155 150 3 0 42 -37 88
-83z m512 -822 l-90 -90 -257 257 -258 258 90 90 90 90 257 -257 258 -258 -90
-90z m240 -80 l100 -76 0 -89 0 -90 -93 0 -93 0 -64 87 c-36 47 -69 93 -74
101 -6 10 9 31 55 78 35 35 65 64 67 64 1 0 48 -34 102 -75z"/>
</g>
</svg>
